HIERARCHY
ROOT Hips
{
  OFFSET -0.188156 90.7555 -2.36727
  CHANNELS 6 Xposition Yposition Zposition Zrotation Xrotation Yrotation
  JOINT Spine
  {
    OFFSET 0 9.9235 -1.2273
    CHANNELS 6 Xposition Yposition Zposition Zrotation Xrotation Yrotation
    JOINT Spine1
    {
      OFFSET -0.0001 11.6454 -1.4223
      CHANNELS 6 Xposition Yposition Zposition Zrotation Xrotation Yrotation
      JOINT Spine2
      {
        OFFSET 0.0001 13.3602 -1.6265
        CHANNELS 6 Xposition Yposition Zposition Zrotation Xrotation Yrotation
        JOINT Neck
        {
          OFFSET 0 15.0325 0.7929
          CHANNELS 6 Xposition Yposition Zposition Zrotation Xrotation Yrotation
          JOINT Head
          {
            OFFSET 0 10.3218 3.1424
            CHANNELS 6 Xposition Yposition Zposition Zrotation Xrotation Yrotation
            JOINT HeadTop_End
            {
              OFFSET 0.0002 18.4747 6.6364
              CHANNELS 6 Xposition Yposition Zposition Zrotation Xrotation Yrotation
              End Site
              {
                OFFSET 0 0 0
              }
            }
            JOINT LeftEye
            {
              OFFSET 2.9479 7.6817 9.1207
              CHANNELS 6 Xposition Yposition Zposition Zrotation Xrotation Yrotation
              End Site
              {
                OFFSET 0 0 0
              }
            }
            JOINT RightEye
            {
              OFFSET -2.9445 7.6817 9.1205
              CHANNELS 6 Xposition Yposition Zposition Zrotation Xrotation Yrotation
              End Site
              {
                OFFSET 0 0 0
              }
            }
          }
        }
        JOINT LeftShoulder
        {
          OFFSET 6.1058 9.1104 0.7056
          CHANNELS 6 Xposition Yposition Zposition Zrotation Xrotation Yrotation
          JOINT LeftArm
          {
            OFFSET 12.655 -0.2659 -2.6009
            CHANNELS 6 Xposition Yposition Zposition Zrotation Xrotation Yrotation
            JOINT LeftForeArm
            {
              OFFSET 27.4047 0 0
              CHANNELS 6 Xposition Yposition Zposition Zrotation Xrotation Yrotation
              JOINT LeftHand
              {
                OFFSET 27.6145 0 0
                CHANNELS 6 Xposition Yposition Zposition Zrotation Xrotation Yrotation
                JOINT LeftHandMiddle1
                {
                  OFFSET 12.7755 0 0
                  CHANNELS 6 Xposition Yposition Zposition Zrotation Xrotation Yrotation
                  JOINT LeftHandMiddle2
                  {
                    OFFSET 3.614 0 0
                    CHANNELS 6 Xposition Yposition Zposition Zrotation Xrotation Yrotation
                    JOINT LeftHandMiddle3
                    {
                      OFFSET 3.4598 0 0
                      CHANNELS 6 Xposition Yposition Zposition Zrotation Xrotation Yrotation
                      End Site
                      {
                        OFFSET 3.6802 0 0
                      }
                    }
                  }
                }
                JOINT LeftHandThumb1
                {
                  OFFSET 3.7888 -2.167 3.0031
                  CHANNELS 6 Xposition Yposition Zposition Zrotation Xrotation Yrotation
                  JOINT LeftHandThumb2
                  {
                    OFFSET 3.6754 -2.122 2.122
                    CHANNELS 6 Xposition Yposition Zposition Zrotation Xrotation Yrotation
                    JOINT LeftHandThumb3
                    {
                      OFFSET 3.3944 -1.9597 1.9598
                      CHANNELS 6 Xposition Yposition Zposition Zrotation Xrotation Yrotation
                      End Site
                      {
                        OFFSET 2.6794 -1.5469 1.5469
                      }
                    }
                  }
                }
                JOINT LeftHandIndex1
                {
                  OFFSET 12.2666 -0.2317 2.8221
                  CHANNELS 6 Xposition Yposition Zposition Zrotation Xrotation Yrotation
                  JOINT LeftHandIndex2
                  {
                    OFFSET 3.892 0 0
                    CHANNELS 6 Xposition Yposition Zposition Zrotation Xrotation Yrotation
                    JOINT LeftHandIndex3
                    {
                      OFFSET 3.4152 0 0
                      CHANNELS 6 Xposition Yposition Zposition Zrotation Xrotation Yrotation
                      End Site
                      {
                        OFFSET 3.078 0 0
                      }
                    }
                  }
                }
                JOINT LeftHandRing1
                {
                  OFFSET 12.147 0.0099 -2.2166
                  CHANNELS 6 Xposition Yposition Zposition Zrotation Xrotation Yrotation
                  JOINT LeftHandRing2
                  {
                    OFFSET 3.6012 0 0
                    CHANNELS 6 Xposition Yposition Zposition Zrotation Xrotation Yrotation
                    JOINT LeftHandRing3
                    {
                      OFFSET 3.3073 0 0
                      CHANNELS 6 Xposition Yposition Zposition Zrotation Xrotation Yrotation
                      End Site
                      {
                        OFFSET 3.6601 0 0
                      }
                    }
                  }
                }
                JOINT LeftHandPinky1
                {
                  OFFSET 10.9082 -0.2264 -4.7258
                  CHANNELS 6 Xposition Yposition Zposition Zrotation Xrotation Yrotation
                  JOINT LeftHandPinky2
                  {
                    OFFSET 4.1367 0 0
                    CHANNELS 6 Xposition Yposition Zposition Zrotation Xrotation Yrotation
                    JOINT LeftHandPinky3
                    {
                      OFFSET 2.5948 0 0
                      CHANNELS 6 Xposition Yposition Zposition Zrotation Xrotation Yrotation
                      End Site
                      {
                        OFFSET 2.9239 0 0
                      }
                    }
                  }
                }
              }
            }
          }
        }
        JOINT RightShoulder
        {
          OFFSET -6.1057 9.1105 0.7056
          CHANNELS 6 Xposition Yposition Zposition Zrotation Xrotation Yrotation
          JOINT RightArm
          {
            OFFSET -12.655 -0.266 -2.6009
            CHANNELS 6 Xposition Yposition Zposition Zrotation Xrotation Yrotation
            JOINT RightForeArm
            {
              OFFSET -27.4047 0 0
              CHANNELS 6 Xposition Yposition Zposition Zrotation Xrotation Yrotation
              JOINT RightHand
              {
                OFFSET -27.6145 0 0
                CHANNELS 6 Xposition Yposition Zposition Zrotation Xrotation Yrotation
                JOINT RightHandMiddle1
                {
                  OFFSET -12.7755 0 0
                  CHANNELS 6 Xposition Yposition Zposition Zrotation Xrotation Yrotation
                  JOINT RightHandMiddle2
                  {
                    OFFSET -3.614 0 0
                    CHANNELS 6 Xposition Yposition Zposition Zrotation Xrotation Yrotation
                    JOINT RightHandMiddle3
                    {
                      OFFSET -3.4598 0 0
                      CHANNELS 6 Xposition Yposition Zposition Zrotation Xrotation Yrotation
                      End Site
                      {
                        OFFSET -3.6802 0 0
                      }
                    }
                  }
                }
                JOINT RightHandThumb1
                {
                  OFFSET -3.7888 -2.167 3.0031
                  CHANNELS 6 Xposition Yposition Zposition Zrotation Xrotation Yrotation
                  JOINT RightHandThumb2
                  {
                    OFFSET -3.6754 -2.122 2.122
                    CHANNELS 6 Xposition Yposition Zposition Zrotation Xrotation Yrotation
                    JOINT RightHandThumb3
                    {
                      OFFSET -3.3944 -1.9597 1.9598
                      CHANNELS 6 Xposition Yposition Zposition Zrotation Xrotation Yrotation
                      End Site
                      {
                        OFFSET -2.6794 -1.5469 1.5469
                      }
                    }
                  }
                }
                JOINT RightHandIndex1
                {
                  OFFSET -12.2666 -0.2317 2.8221
                  CHANNELS 6 Xposition Yposition Zposition Zrotation Xrotation Yrotation
                  JOINT RightHandIndex2
                  {
                    OFFSET -3.892 0 0
                    CHANNELS 6 Xposition Yposition Zposition Zrotation Xrotation Yrotation
                    JOINT RightHandIndex3
                    {
                      OFFSET -3.4152 0 0
                      CHANNELS 6 Xposition Yposition Zposition Zrotation Xrotation Yrotation
                      End Site
                      {
                        OFFSET -3.078 0 0
                      }
                    }
                  }
                }
                JOINT RightHandRing1
                {
                  OFFSET -12.147 0.0099 -2.2166
                  CHANNELS 6 Xposition Yposition Zposition Zrotation Xrotation Yrotation
                  JOINT RightHandRing2
                  {
                    OFFSET -3.6012 0 0
                    CHANNELS 6 Xposition Yposition Zposition Zrotation Xrotation Yrotation
                    JOINT RightHandRing3
                    {
                      OFFSET -3.3073 0 0
                      CHANNELS 6 Xposition Yposition Zposition Zrotation Xrotation Yrotation
                      End Site
                      {
                        OFFSET -3.6601 0 0
                      }
                    }
                  }
                }
                JOINT RightHandPinky1
                {
                  OFFSET -10.9082 -0.2264 -4.7258
                  CHANNELS 6 Xposition Yposition Zposition Zrotation Xrotation Yrotation
                  JOINT RightHandPinky2
                  {
                    OFFSET -4.1367 0 0
                    CHANNELS 6 Xposition Yposition Zposition Zrotation Xrotation Yrotation
                    JOINT RightHandPinky3
                    {
                      OFFSET -2.5948 0 0
                      CHANNELS 6 Xposition Yposition Zposition Zrotation Xrotation Yrotation
                      End Site
                      {
                        OFFSET -2.9239 0 0
                      }
                    }
                  }
                }
              }
            }
          }
        }
      }
    }
  }
  JOINT RightUpLeg
  {
    OFFSET -9.1245 -6.6564 -0.0554
    CHANNELS 6 Xposition Yposition Zposition Zrotation Xrotation Yrotation
    JOINT RightLeg
    {
      OFFSET -0.2447 -40.5954 -0.5145
      CHANNELS 6 Xposition Yposition Zposition Zrotation Xrotation Yrotation
      JOINT RightFoot
      {
        OFFSET 0.2447 -42.0479 -2.0602
        CHANNELS 6 Xposition Yposition Zposition Zrotation Xrotation Yrotation
        JOINT RightToeBase
        {
          OFFSET -0.3734 -10.4922 12.6407
          CHANNELS 6 Xposition Yposition Zposition Zrotation Xrotation Yrotation
          End Site
          {
            OFFSET 0 0 9.9925
          }
        }
      }
    }
  }
  JOINT LeftUpLeg
  {
    OFFSET 9.1245 -6.6564 -0.0554
    CHANNELS 6 Xposition Yposition Zposition Zrotation Xrotation Yrotation
    JOINT LeftLeg
    {
      OFFSET 0.2447 -40.5954 -0.517
      CHANNELS 6 Xposition Yposition Zposition Zrotation Xrotation Yrotation
      JOINT LeftFoot
      {
        OFFSET -0.2447 -42.048 -2.0576
        CHANNELS 6 Xposition Yposition Zposition Zrotation Xrotation Yrotation
        JOINT LeftToeBase
        {
          OFFSET 0.3734 -10.4922 12.6407
          CHANNELS 6 Xposition Yposition Zposition Zrotation Xrotation Yrotation
          End Site
          {
            OFFSET 0 0 9.9925
          }
        }
      }
    }
  }
}
MOTION
Frames: 4
Frame Time: 0.0166667
-0.188156 90.7555 -2.36727 3.39812 2.42969 8.02816 -8.88178e-016 9.9235 -1.2273 -0.176737 8.29214 -1.38902 -0.0001 11.6454 -1.4223 0.077566 16.5835 -2.88996 0.0001 13.3602 -1.6265 0.0775645 16.5835 -2.88997 2.22045e-016 15.0325 0.7929 -3.54897 -5.85767 2.57348 8.88178e-016 10.3218 3.1424 5.1051 -25.7716 -6.45825 0.0002 18.4747 6.6364 9.93923e-017 -1.59028e-015 -0 2.9479 7.6817 9.1207 9.93923e-017 -1.59028e-015 -0 -2.9445 7.6817 9.1205 9.93923e-017 -1.59028e-015 -0 6.1058 9.1104 0.7056 -5.49396 0.240982 1.69173 12.655 -0.2659 -2.6009 -27.4115 39.7976 -61.7201 27.4047 0 -3.55271e-015 0.901307 0.333518 -69.7081 27.6145 0 -1.42109e-014 -15.4571 42.6379 20.125 12.7755 0 7.10543e-015 -33.8853 -4.44475 -1.74191 3.614 0 0 -35.1077 0.402997 -1.53804 3.4598 1.77636e-015 0 3.18055e-015 9.54166e-015 -3.18055e-015 3.7888 -2.167 3.0031 -6.48761 2.06715 14.3869 3.6754 -2.122 2.122 1.64698 3.55104 9.27314 3.3944 -1.9597 1.9598 -9.97681e-005 -0.000577406 -0.00110568 12.2666 -0.2317 2.8221 -19.4163 -10.5698 -3.03042 3.892 0 0 -22.9196 -0.039477 1.99261 3.4152 3.55271e-015 7.10543e-015 -2.49108e-006 -3.96454e-006 -7.49285e-006 12.147 0.0099 -2.2166 -40.4878 -2.04878 1.77693 3.6012 0 -7.10543e-015 -40.3859 0.573371 -2.66024 3.3073 0 -7.10543e-015 -6.36111e-015 -1.30842e-006 6.36111e-015 10.9082 -0.2264 -4.7258 -51.1542 2.96765 0.986735 4.1367 -1.77636e-015 0 -48.5165 3.45297 -7.82221 2.5948 7.10543e-015 0 2.39503e-006 5.2588e-006 2.07096e-006 -6.1057 9.1105 0.7056 5.57425 0.877599 3.05268 -12.655 -0.266 -2.6009 37.836 35.8019 38.2445 -27.4047 0 0 -1.26324 -0.300033 103.373 -27.6145 0 0 36.9347 25.2653 -21.1725 -12.7755 0 0 27.7793 -2.99995 -4.46022 -3.614 0 1.42109e-014 49.295 1.11463 2.76456 -3.4598 -3.55271e-015 0 6.81044e-007 1.59009e-006 1.38684e-006 -3.7888 -2.167 3.0031 15.5516 29.666 10.0736 -3.6754 -2.122 2.122 0.558349 0.344298 -1.63465 -3.3944 -1.9597 1.9598 9.24156e-005 -0.000587336 0.00109369 -12.2666 -0.2317 2.8221 15.925 -12.804 -5.58697 -3.892 0 0 30.4175 -0.541514 -1.69592 -3.4152 3.55271e-015 -1.42109e-014 -6.36111e-015 7.95139e-015 6.36111e-015 -12.147 0.0099 -2.2166 39.5703 -3.92199 -7.82525 -3.6012 -3.55271e-015 -1.42109e-014 62.1098 1.01202 2.7854 -3.3073 7.10543e-015 -1.42109e-014 1.03529e-005 -1.29586e-006 -5.89964e-006 -10.9082 -0.2264 -4.7258 52.3173 -2.14871 -13.8033 -4.1367 1.77636e-015 0 64.4286 3.4793 5.84793 -2.5948 0 0 1.16987e-006 7.47993e-007 1.22904e-006 -9.1245 -6.6564 -0.0554 -4.60758 -28.9889 -7.77565 -0.2447 -40.5954 -0.5145 4.21966 59.8903 -2.40574 0.2447 -42.0479 -2.0602 -1.93651 -24.1075 -18.2114 -0.3734 -10.4922 12.6407 -0.559194 -5.29826 -0.0140119 9.1245 -6.6564 -0.0554 2.84527 -29.3403 2.83199 0.2447 -40.5954 -0.517 -6.10597 69.4615 4.63819 -0.2447 -42.048 -2.0576 -6.81804 -23.5788 17.7921 0.3734 -10.4922 12.6407 0.00293607 -0.73729 -0.00447082 
-0.178541 91.2849 -0.22728 3.13326 2.83729 8.29843 0 9.9235 -1.2273 -0.122065 8.23493 -1.26128 -0.0001 11.6454 -1.4223 0.115822 16.4686 -2.58257 0.0001 13.3602 -1.6265 0.115821 16.4686 -2.58257 0 15.0325 0.7929 -3.14837 -4.85687 2.85656 0 10.3218 3.1424 4.78446 -25.0406 -6.67128 0.0002 18.4747 6.6364 -4.96962e-016 -1.59028e-015 -0 2.9479 7.6817 9.1207 -4.96962e-016 -1.59028e-015 -0 -2.9445 7.6817 9.1205 -4.96962e-016 -1.59028e-015 -0 6.1058 9.1104 0.7056 -5.79157 0.253521 1.42432 12.655 -0.2659 -2.6009 -25.7685 38.7095 -61.9962 27.4047 0 0 0.990125 0.351807 -70.4525 27.6145 0 0 -16.4287 40.7813 20.3054 12.7755 0 1.42109e-014 -33.8853 -4.44475 -1.74192 3.614 0 0 -35.1076 0.402985 -1.53805 3.4598 -3.55271e-015 7.10543e-015 -3.18055e-015 -1.59028e-015 -1.59028e-015 3.7888 -2.167 3.0031 -6.4876 2.06714 14.3869 3.6754 -2.122 2.122 1.64697 3.55101 9.27311 3.3944 -1.9597 1.9598 -9.97681e-005 -0.000577406 -0.00110568 12.2666 -0.2317 2.8221 -19.4163 -10.5698 -3.03042 3.892 0 -7.10543e-015 -22.9196 -0.0394539 1.99261 3.4152 1.77636e-015 0 -2.49108e-006 -3.96454e-006 -7.49285e-006 12.147 0.0099 -2.2166 -40.4878 -2.04879 1.77694 3.6012 -3.55271e-015 -7.10543e-015 -40.3859 0.573386 -2.66023 3.3073 7.10543e-015 0 3.18055e-015 -1.30842e-006 -0 10.9082 -0.2264 -4.7258 -51.1542 2.96763 0.98672 4.1367 1.77636e-015 -7.10543e-015 -48.5166 3.45297 -7.8222 2.5948 7.10543e-015 -1.42109e-014 2.39503e-006 5.2588e-006 2.07096e-006 -6.1057 9.1105 0.7056 5.45442 0.885227 3.14481 -12.655 -0.266 -2.6009 36.9599 35.6363 39.6048 -27.4047 0 7.10543e-015 -1.26023 -0.291347 103.03 -27.6145 0 -1.42109e-014 35.2936 25.7436 -20.9467 -12.7755 1.42109e-014 0 27.7793 -2.99993 -4.46022 -3.614 3.55271e-015 0 49.295 1.11464 2.76456 -3.4598 -7.10543e-015 0 6.81044e-007 1.59009e-006 1.38684e-006 -3.7888 -2.167 3.0031 15.5516 29.666 10.0736 -3.6754 -2.122 2.122 0.558357 0.344294 -1.63465 -3.3944 -1.9597 1.9598 9.24156e-005 -0.000587336 0.00109369 -12.2666 -0.2317 2.8221 15.925 -12.804 -5.58697 -3.892 0 0 30.4175 -0.541531 -1.69591 -3.4152 0 0 2.64834e-031 4.77083e-015 -3.18055e-015 -12.147 0.0099 -2.2166 39.5703 -3.92198 -7.82526 -3.6012 0 -1.42109e-014 62.1098 1.01204 2.7854 -3.3073 0 0 1.03529e-005 -1.29586e-006 -5.89964e-006 -10.9082 -0.2264 -4.7258 52.3173 -2.14869 -13.8033 -4.1367 -8.88178e-016 -7.10543e-015 64.4286 3.4793 5.84792 -2.5948 0 -7.10543e-015 1.16987e-006 7.47993e-007 1.22904e-006 -9.1245 -6.6564 -0.0554 -4.29413 -27.4049 -7.91125 -0.2447 -40.5954 -0.5145 4.03349 58.7651 -2.25946 0.2447 -42.0479 -2.0602 -1.01561 -23.733 -17.5157 -0.3734 -10.4922 12.6407 -0.935145 -6.34945 0.0764114 9.1245 -6.6564 -0.0554 2.23793 -30.7443 2.61944 0.2447 -40.5954 -0.517 -5.25507 66.6146 3.79976 -0.2447 -42.048 -2.0576 -6.16203 -24.6519 17.1551 0.3734 -10.4922 12.6407 -0.414718 -2.07676 1.11487 
-0.122206 91.8574 1.94005 2.90384 3.19601 8.56432 0 9.9235 -1.2273 -0.0663028 8.20055 -1.14675 -0.0001 11.6454 -1.4223 0.159276 16.3995 -2.30595 0.0001 13.3602 -1.6265 0.159276 16.3995 -2.30595 0 15.0325 0.7929 -2.67717 -4.48976 3.21936 0 10.3218 3.1424 4.31791 -23.9571 -6.71736 0.0002 18.4747 6.6364 5.96354e-016 0 -0 2.9479 7.6817 9.1207 5.96354e-016 0 -0 -2.9445 7.6817 9.1205 5.96354e-016 0 -0 6.1058 9.1104 0.7056 -6.02346 0.269065 1.2094 12.655 -0.2659 -2.6009 -24.1395 37.6168 -62.4 27.4047 -3.55271e-015 1.06581e-014 1.13924 0.391718 -71.0381 27.6145 3.55271e-015 -2.84217e-014 -16.5401 39.162 20.3349 12.7755 1.42109e-014 7.10543e-015 -33.8853 -4.44475 -1.74191 3.614 7.10543e-015 0 -35.1076 0.402975 -1.53804 3.4598 1.77636e-015 7.10543e-015 8.82781e-032 3.18055e-015 -1.59028e-015 3.7888 -2.167 3.0031 -6.4876 2.06716 14.3869 3.6754 -2.122 2.122 1.64697 3.55102 9.27312 3.3944 -1.9597 1.9598 -9.97681e-005 -0.000577406 -0.00110568 12.2666 -0.2317 2.8221 -19.4163 -10.5698 -3.03042 3.892 7.10543e-015 0 -22.9196 -0.0394636 1.9926 3.4152 1.77636e-015 -7.10543e-015 -2.49108e-006 -3.96454e-006 -7.49285e-006 12.147 0.0099 -2.2166 -40.4878 -2.04877 1.77694 3.6012 -3.55271e-015 -7.10543e-015 -40.3859 0.573369 -2.66023 3.3073 0 -7.10543e-015 -6.36111e-015 -1.30842e-006 -3.18055e-015 10.9082 -0.2264 -4.7258 -51.1542 2.96765 0.986737 4.1367 0 0 -48.5165 3.45296 -7.82222 2.5948 0 0 2.39503e-006 5.2588e-006 2.07096e-006 -6.1057 9.1105 0.7056 5.43474 0.897019 3.249 -12.655 -0.266 -2.6009 35.8168 35.3717 41.0486 -27.4047 0 -7.10543e-015 -1.26074 -0.283451 102.683 -27.6145 0 0 33.5187 26.0912 -20.5408 -12.7755 0 -1.42109e-014 27.7793 -2.99995 -4.46022 -3.614 0 -1.42109e-014 49.295 1.11462 2.76455 -3.4598 1.42109e-014 0 6.81044e-007 1.59009e-006 1.38684e-006 -3.7888 -2.167 3.0031 15.5516 29.666 10.0736 -3.6754 -2.122 2.122 0.55834 0.344312 -1.63465 -3.3944 -1.9597 1.9598 9.24156e-005 -0.000587336 0.00109369 -12.2666 -0.2317 2.8221 15.925 -12.804 -5.58697 -3.892 0 -1.42109e-014 30.4175 -0.54153 -1.6959 -3.4152 1.77636e-015 0 3.18055e-015 -1.59028e-015 7.95139e-015 -12.147 0.0099 -2.2166 39.5703 -3.92199 -7.82527 -3.6012 7.10543e-015 1.42109e-014 62.1098 1.01203 2.78542 -3.3073 0 -2.84217e-014 1.03529e-005 -1.29586e-006 -5.89964e-006 -10.9082 -0.2264 -4.7258 52.3172 -2.1487 -13.8033 -4.1367 -8.88178e-016 1.42109e-014 64.4286 3.47931 5.84791 -2.5948 0 -7.10543e-015 1.16987e-006 7.47993e-007 1.22904e-006 -9.1245 -6.6564 -0.0554 -4.00219 -25.676 -7.97705 -0.2447 -40.5954 -0.5145 3.82855 57.4337 -2.09803 0.2447 -42.0479 -2.0602 -0.179335 -23.0623 -16.7329 -0.3734 -10.4922 12.6407 -1.1909 -7.52993 0.219416 9.1245 -6.6564 -0.0554 1.51646 -31.8916 2.39718 0.2447 -40.5954 -0.517 -4.50542 63.3951 3.07059 -0.2447 -42.048 -2.0576 -4.92201 -25.4553 16.7193 0.3734 -10.4922 12.6407 -0.318902 -3.79046 1.4887 
0.073038 92.5646 4.18963 2.76858 3.40193 8.84448 0 9.9235 -1.2273 -0.00375315 8.25182 -1.0749 -0.0001 11.6454 -1.4223 0.22774 16.5016 -2.12197 0.0001 13.3602 -1.6265 0.22774 16.5016 -2.12197 -7.77156e-016 15.0325 0.7929 -2.18014 -4.46457 3.62472 -8.88178e-016 10.3218 3.1424 3.75221 -22.7017 -6.65853 0.0002 18.4747 6.6364 8.69683e-017 0 2.73329e-016 2.9479 7.6817 9.1207 8.69683e-017 0 2.73329e-016 -2.9445 7.6817 9.1205 8.69683e-017 0 2.73329e-016 6.1058 9.1104 0.7056 -6.03243 0.283117 1.19178 12.655 -0.2659 -2.6009 -22.5847 36.5577 -63.1899 27.4047 0 0 1.19149 0.406731 -71.164 27.6145 -7.10543e-015 0 -15.7817 37.9731 20.0481 12.7755 0 0 -33.8853 -4.44474 -1.74193 3.614 0 0 -35.1077 0.402982 -1.53804 3.4598 3.55271e-015 -7.10543e-015 3.18055e-015 1.11319e-014 -7.95139e-015 3.7888 -2.167 3.0031 -6.48761 2.06715 14.3868 3.6754 -2.122 2.122 1.64698 3.55102 9.27311 3.3944 -1.9597 1.9598 -9.97681e-005 -0.000577406 -0.00110568 12.2666 -0.2317 2.8221 -19.4163 -10.5698 -3.03042 3.892 0 -7.10543e-015 -22.9196 -0.0394866 1.99257 3.4152 0 0 -2.49108e-006 -3.96454e-006 -7.49285e-006 12.147 0.0099 -2.2166 -40.4878 -2.04877 1.77692 3.6012 0 7.10543e-015 -40.3859 0.573371 -2.66023 3.3073 0 -7.10543e-015 6.36111e-015 -1.30842e-006 -0 10.9082 -0.2264 -4.7258 -51.1542 2.96766 0.986718 4.1367 0 0 -48.5166 3.45296 -7.82222 2.5948 0 -7.10543e-015 2.39503e-006 5.2588e-006 2.07096e-006 -6.1057 9.1105 0.7056 5.67922 0.917564 3.33471 -12.655 -0.266 -2.6009 33.884 34.8284 42.8343 -27.4047 0 0 -1.2695 -0.277386 102.338 -27.6145 0 1.42109e-014 31.3436 26.0097 -19.6623 -12.7755 0 1.42109e-014 27.7793 -2.99994 -4.46023 -3.614 1.42109e-014 -1.42109e-014 49.295 1.11463 2.76456 -3.4598 0 1.42109e-014 6.81044e-007 1.59009e-006 1.38684e-006 -3.7888 -2.167 3.0031 15.5516 29.666 10.0736 -3.6754 -2.122 2.122 0.558338 0.344301 -1.63465 -3.3944 -1.9597 1.9598 9.24156e-005 -0.000587336 0.00109369 -12.2666 -0.2317 2.8221 15.925 -12.804 -5.58697 -3.892 0 1.42109e-014 30.4175 -0.541503 -1.6959 -3.4152 0 0 -2.20695e-031 7.95139e-015 1.59028e-015 -12.147 0.0099 -2.2166 39.5703 -3.92201 -7.82525 -3.6012 -3.55271e-015 2.13163e-014 62.1098 1.01204 2.78541 -3.3073 -7.10543e-015 0 1.03529e-005 -1.29586e-006 -5.89964e-006 -10.9082 -0.2264 -4.7258 52.3172 -2.14871 -13.8033 -4.1367 1.77636e-015 -7.10543e-015 64.4286 3.4793 5.84792 -2.5948 1.42109e-014 0 1.16987e-006 7.47993e-007 1.22904e-006 -9.1245 -6.6564 -0.0554 -3.78202 -23.4588 -7.85507 -0.2447 -40.5954 -0.5145 3.54976 55.4457 -1.87327 0.2447 -42.0479 -2.0602 0.433882 -21.563 -15.7657 -0.3734 -10.4922 12.6407 -1.10263 -9.71215 0.595878 9.1245 -6.6564 -0.0554 0.454479 -32.3071 2.07798 0.2447 -40.5954 -0.517 -3.73995 59.1141 2.34676 -0.2447 -42.048 -2.0576 -1.47036 -25.4463 16.9989 0.3734 -10.4922 12.6407 1.17782 -7.07469 -0.524465 
